<svg width="155.44px" height="119.707px" viewBox="0 0 155.44 119.707" version="1.1" xmlns="http://www.w3.org/2000/svg" xmlns:xlink="http://www.w3.org/1999/xlink">
    <g id="Page-5" stroke="none" stroke-width="1" fill="none" fill-rule="evenodd">
        <g id="Radley-logo-red" fill="#C20040">
            <g id="Group-103-Copy-3" transform="translate(31.000000, 0.000000)">
                <path d="M23.2424882,67.4958946 C20.6873918,67.4934801 18.2073253,66.5224635 16.2451287,65.1965208 L16.199866,65.1659376 L15.5625191,64.5454206 L10.126109,59.265392 L9.99643765,59.1414496 C8.34985619,57.4992122 7.08861883,54.5934058 7.07760187,51.65098 C7.07516237,49.6345008 7.70272276,47.5745613 9.31831359,46.0252807 C11.3791909,44.0422017 13.8506942,42.731953 16.6035598,42.7315506 C18.6901268,42.7299409 20.8912775,43.4908992 23.1213801,45.1737801 C23.6861437,44.5242895 24.5339007,44.200349 25.3824732,44.1496453 C25.4795229,44.1424019 25.5741259,44.1391826 25.6662822,44.1391826 C25.8930032,44.1391826 26.1205397,44.1580959 26.3460374,44.1959225 C26.5018061,43.871982 26.7489157,43.5834537 27.0404723,43.3065952 C27.5322448,42.8675653 28.2038445,42.5009693 28.9953291,42.495738 C29.1873894,42.495738 29.3831198,42.5198826 29.5833356,42.5709888 C29.6816086,42.5971454 29.7798815,42.6301431 29.8781544,42.6699817 L43.1645744,31.7207936 L43.9483113,32.6471427 L30.002117,44.1403898 L29.623705,43.896529 C29.5021891,43.8192662 29.3843431,43.7685625 29.268536,43.7371745 C29.1763796,43.7142371 29.0866699,43.703372 28.9953291,43.703372 C28.6218103,43.6977382 28.1879414,43.9049797 27.8645786,44.1991418 C27.5607888,44.452258 27.4058356,44.8023551 27.394418,44.8731794 L27.4918754,45.790273 L26.5927392,45.4969157 C26.286095,45.3967155 25.9688487,45.3456094 25.6662822,45.3456094 C25.6010388,45.3456094 25.538242,45.3480238 25.468513,45.35406 C24.7483885,45.3975203 24.1705762,45.7009379 23.9067481,46.1564666 C23.8806507,46.1995245 23.8541455,46.2522403 23.8288637,46.3085778 L23.5006076,47.0365384 L22.8791638,46.5274891 C20.6221483,44.6820344 18.527426,43.9403918 16.6035598,43.9387822 C14.2600968,43.9379773 12.0878979,45.0514473 10.1705561,46.8892562 C8.83999757,48.1689216 8.303778,49.8666917 8.30133138,51.65098 C8.289506,54.2380773 9.49243203,56.9523363 10.8547967,58.2814983 L10.9803904,58.4010142 L16.4200627,63.6850669 L16.9803407,64.2299307 C18.7684189,65.4315286 21.0266577,66.2914799 23.2424882,66.2890654 C25.0835767,66.2850413 26.8916357,65.71724 28.502741,64.2552826 C30.1101764,62.7880938 30.7100084,60.868998 30.7132705,58.9020153 C30.7189793,56.6074705 29.855727,54.2843545 28.8750365,52.8883923 L28.3465645,52.1310557 L29.2106324,51.9632505 C29.2130791,51.9616409 29.2155257,51.9604337 29.2183801,51.9584216 C29.2526329,51.9387035 29.311352,51.8988648 29.3790421,51.8461491 C29.51483,51.7395103 29.6881329,51.5789485 29.8496104,51.3898155 C30.1807209,51.0095376 30.4408792,50.5153774 30.4384325,50.123832 L30.4384325,50.0988825 L30.4384325,49.5656886 L30.9310205,49.5057294 C30.9375449,49.5025101 30.9457003,49.4980836 30.9554868,49.4928523 C31.0019728,49.4675004 31.0757794,49.4180039 31.1601881,49.3516062 C31.3298211,49.2188107 31.5414545,49.017203 31.7384082,48.7813905 C32.1392476,48.3101677 32.4528239,47.6944796 32.4426296,47.2393533 C32.4426296,47.1548471 32.4336586,47.0727554 32.4149012,46.9934805 L32.3345702,46.6457978 L46.4308244,34.30105 L46.4997378,34.2664426 L46.5070777,34.2624185 L46.8014887,34.8290126 L47.1835706,35.2547629 L33.6618665,47.0969 C33.6647209,47.1443844 33.666352,47.1918689 33.666352,47.2393533 C33.6304681,48.6159997 32.6334667,49.7113612 31.9227209,50.2964661 C31.8126226,50.3749362 31.7200585,50.4461628 31.6226011,50.5073292 C31.446036,51.5254279 30.7397757,52.2831669 30.2194592,52.7250137 C31.1883244,54.3342534 31.9325074,56.5772897 31.9369929,58.9020153 C31.9410706,61.1044081 31.2380725,63.4090132 29.3321483,65.1421954 C27.5024775,66.8121991 25.3551526,67.4958946 23.2612457,67.4958946 L23.2424882,67.4958946 Z" id="Fill-1"></path>
                <path d="M9.02284233,65.0181725 C8.27743596,64.1638549 7.95570422,63.3208049 7.95813701,62.5598465 C7.96793737,61.4234392 8.62159514,60.6327025 9.13701836,60.17154 C9.23406799,59.4850277 9.54601321,58.8262816 10.1311654,58.4122012 L10.7917553,59.4278854 C10.6698316,59.4572614 10.3130315,60.1011182 10.3354589,60.4423623 L10.3330123,60.5071504 L10.3313812,60.5139914 L10.3313812,60.7618763 L10.1038447,60.9425586 C9.69566537,61.2652919 9.17045563,61.8564329 9.18146546,62.5598465 C9.18391209,62.9876089 9.34579739,63.5304607 9.9529692,64.2342768 C10.5528011,64.9139481 11.0351949,65.0680714 11.5012777,65.076522 C12.0807211,65.0829606 12.7192913,64.7509719 13.244501,64.404094 L13.4279982,64.2845781 L13.646156,64.3071131 C13.74606,64.3179781 13.8386242,64.3228071 13.9283339,64.3228071 C13.9797131,64.3228071 14.0339467,64.3203926 14.104899,64.3171733 C14.6468274,64.2910166 15.0354336,64.1421247 15.4725647,63.7759312 L16.2742436,64.6881958 C15.666664,65.2145488 14.9379762,65.5002603 14.1648414,65.5223929 C14.0902192,65.5268194 14.0111115,65.5296363 13.9283339,65.5296363 C13.8659449,65.5296363 13.803148,65.528429 13.7391279,65.5252097 C13.1739566,65.8765141 12.4179481,66.277315 11.5012777,66.2829488 C11.4927145,66.2833512 11.4841513,66.2833512 11.4755881,66.2833512 C10.6588217,66.2833512 9.7711031,65.8978419 9.02284233,65.0181725" id="Fill-3"></path>
                <polygon id="Fill-5" points="46.2562982 29.0267759 46.3782219 28.9229539 58.1183722 19.0803948 58.9098567 20.0003053 47.1729686 29.8400475 47.0551226 29.9406502"></polygon>
                <polygon id="Fill-7" points="49.5917062 31.5459865 60.7528209 22.2144887 61.5430822 23.135204 50.3823752 32.4675066"></polygon>
                <path d="M58.449605,16.7104382 C58.1963789,16.9720051 58.0467267,17.3269311 58.0491438,17.6259222 C58.0528433,17.8637468 58.12298,18.0673665 58.3260502,18.2725959 L58.3411377,18.2870827 L59.0461747,19.0689663 L60.9186616,21.1289058 L61.7994481,22.1003248 L62.2924439,22.6447863 C62.4221153,22.7767769 62.5550488,22.8274807 62.7630123,22.8323096 C63.0504912,22.8375409 63.4566317,22.6745647 63.7547127,22.405352 C64.0597258,22.1369442 64.2334364,21.7944928 64.2277276,21.5220609 C64.2260966,21.3719618 64.1893971,21.2283012 64.0715511,21.0560695 L63.9108892,20.8681438 L63.6894692,20.6170396 L62.804605,19.5997458 L60.7441354,17.2371936 L60.3139364,16.7422286 C59.945311,16.3905218 59.6337735,16.2931385 59.3552656,16.2899192 L59.3520034,16.2899192 C59.0302716,16.2899192 58.7020156,16.4460545 58.449605,16.7104382 M61.3884144,23.4592652 L60.887671,22.9047435 L60.0072922,21.9349341 L58.1343976,19.873385 L57.4501569,19.1152435 C57.0240357,18.6927125 56.821781,18.1446293 56.8266743,17.6259222 C56.8486939,16.3205024 57.9137932,15.1164901 59.3552656,15.0830619 C59.9820104,15.0798707 60.6405614,15.3527051 61.1926841,15.901593 L61.2102183,15.9201039 L61.6726312,16.450481 L63.7322852,18.8130332 L64.6138873,19.8275102 L64.8377539,20.0810288 L64.3773798,20.478208 L64.8434627,20.0878698 L65.0375619,20.3136221 L65.0550961,20.3369619 C65.3221864,20.7027531 65.4534889,21.1220648 65.4518728,21.5220609 C65.4453334,22.2492167 65.0648826,22.8641 64.5727024,23.3027275 C64.0748133,23.7401478 63.4423597,24.0343099 62.7630123,24.0391388 C62.7568957,24.0391388 62.7495558,24.0391388 62.7430315,24.0391388 C62.2724631,24.0391388 61.7651953,23.8616757 61.3884144,23.4592652" id="Fill-9"></path>
                <path d="M61.0626865,16.1738238 L79.2236074,1.00697088 L79.2554136,0.986045534 C79.3198415,0.943390018 79.3916093,0.894295933 79.4650082,0.84640908 C80.2279487,0.344200738 80.8803832,0.0085903561 81.6049932,6.90503556e-05 C82.3018748,-0.00589642299 82.9127165,0.375186349 83.3922558,0.942585197 C83.8285714,1.4431839 84.0508069,2.01460685 84.0475801,2.56550686 C84.0414281,3.44799316 83.5402769,4.16669836 82.9477849,4.7031116 L82.1232708,3.81056505 C82.5734506,3.4077521 82.83157,2.9490041 82.8242301,2.56550686 C82.8217835,2.31882921 82.7430836,2.05726237 82.462129,1.72728573 C82.0788237,1.29871852 81.8598504,1.21340748 81.6049932,1.20777374 C81.3252619,1.19932311 80.8387905,1.3820175 80.1394623,1.85444746 C80.0909375,1.88422584 80.0334417,1.92406448 79.9645283,1.97034169 L61.85254,17.0949415 L61.0626865,16.1738238 Z" id="Fill-11"></path>
                <polygon id="Fill-13" points="70.4342551 27.9840094 63.9466099 20.8605382 64.8559405 20.0537051 71.3435856 27.1771763 74.7566334 30.9256304 83.4605168 23.2198712 91.9841652 15.6706496 88.7305561 12.0875863 82.0157822 4.6900735 82.0064035 4.67920842 81.0889175 3.6695604 79.3636362 1.76978028 79.3644517 1.7705851 80.2750056 0.964154401 81.9998792 2.86312969 82.9287827 3.88645967 82.9381615 3.89812958 89.6419255 11.2823628 93.7114854 15.7628016 84.2768754 24.1184539 74.6632537 32.6294366"></polygon>
                <polygon id="Fill-16" points="70.6779801 26.9546031 73.3619324 24.7582464 68.7186379 19.713628 75.4268874 14.0750516 82.2069048 8.37329684 86.5460017 13.1181194 88.7320649 11.2782985 89.5264038 12.1965993 86.4338645 14.7981834 82.0955831 10.0541656 76.2204108 14.9937549 70.4732788 19.8250957 75.1283987 24.881384 71.4592704 27.883769"></polygon>
                <polygon id="Fill-18" points="83.4073026 24.065054 75.3689023 14.937176 75.2628817 14.8208793 76.17262 14.0136438 76.2847572 14.1379887 84.3357984 23.2795487 84.4014496 23.3564091 84.4018574 23.3564091 83.4664295 24.1342686"></polygon>
                <polygon id="Fill-20" points="72.3791622 20.8369167 76.2945845 17.5854397 77.0819913 18.5093742 73.1677923 21.7608513"></polygon>
                <polygon id="Fill-22" points="78.6302998 15.6012338 80.787819 13.8109094 82.5449066 12.3501591 83.333129 13.2736913 81.5748181 14.7348439 79.4181145 16.524766"></polygon>
                <polygon id="Fill-24" points="74.7238485 20.0246109 75.6262469 19.2089247 81.5956145 25.6350185 80.6940316 26.4507046"></polygon>
                <polygon id="Fill-26" points="80.7287329 14.678426 80.4477784 14.3729964 81.3534389 13.560932 81.6319469 13.8643495 87.3179132 19.9858185 86.4155148 20.8011022"></polygon>
                <polygon id="Fill-28" points="63.956111 19.5984179 81.9673798 3.90440718 82.777214 4.80983087 64.7651297 20.5038416"></polygon>
                <path d="M17.6714727,57.0497196 C17.6698416,57.0947896 17.6698416,57.1426765 17.6698416,57.1933802 C17.690638,61.8420266 20.7089629,63.1554946 22.727432,63.185306 C23.4463332,63.1884923 24.7397845,62.9567038 25.795505,62.2693866 C26.8536722,61.5752285 27.7022447,60.4879152 27.7104002,58.6062436 C27.7055069,56.5925813 26.9083136,55.3016483 25.8530008,54.4630247 C24.7980959,53.6272181 23.4495954,53.2747065 22.4211956,53.2763161 C22.3302625,53.2763161 22.2409606,53.2795354 22.1536974,53.2851691 L21.7206441,53.3117282 L21.7206441,52.8835634 C21.7088187,49.2614662 19.1912372,47.2172207 16.5056539,47.2059532 C13.810284,47.2232569 11.6747845,49.1125743 11.6564169,52.3330658 C11.6523571,53.4867768 12.3455687,54.6062829 13.3217737,55.4364558 C14.2902311,56.2682384 15.5302644,56.7792998 16.4436726,56.7732636 C16.6993454,56.7732636 16.9276974,56.7358394 17.1193501,56.6642103 L17.6849292,56.4529448 L17.6714727,57.0497196 Z M18.897234,62.5084185 C17.7717845,61.4911247 16.9350373,59.8742391 16.8600074,57.5515256 C16.7238117,57.569634 16.5847616,57.5780847 16.4436726,57.5780847 C15.2472709,57.5724509 13.8902073,56.9780906 12.7884086,56.045303 C11.6943575,55.1117105 10.8445617,53.8099125 10.8412963,52.3330658 C10.8396684,50.535498 11.4660055,49.0413477 12.4972597,48.0063478 C13.5272906,46.9701407 14.9528599,46.399925 16.5056539,46.4007289 C18.0637489,46.4007289 19.575358,47.0079673 20.6955064,48.1274734 C21.7398093,49.1685094 22.4358754,50.6550139 22.5259929,52.4731047 C23.7134236,52.4972493 25.1630514,52.8924164 26.3618997,53.8344595 C27.5970397,54.8002448 28.531652,56.3740724 28.5259904,58.6062436 C28.5340987,60.7482748 27.4828637,62.1518827 26.2428304,62.9426194 C25.0011661,63.7405995 23.5996553,63.9872772 22.727432,63.9904965 C21.5391857,63.9888868 20.0789559,63.5788305 18.897234,62.5084185 L18.897234,62.5084185 Z" id="Fill-30"></path>
                <path d="M26.8104892,51.1878457 C25.8958576,50.3576728 25.0052846,49.4514442 24.5954742,49.0180481 C23.7615814,48.1255015 23.0133206,46.9834605 22.9961942,45.9066099 C22.9961942,45.8844773 22.9961942,45.8647592 22.996602,45.8458459 L22.9974175,45.8466507 L23.8121451,45.8776363 C23.8117373,45.8893062 23.8117373,45.8981593 23.8117373,45.9066099 C23.7942031,46.5798427 24.4278801,47.6816427 25.1912284,48.4683553 C25.5875823,48.8876671 26.471631,49.7870546 27.3630196,50.5958998 C28.2287186,51.4031353 29.2187879,52.1314984 29.4622275,52.1520213 L29.2946334,52.9399411 C28.6001984,52.7660998 27.7520336,52.0204331 26.8104892,51.1878457" id="Fill-32"></path>
                <path d="M30.6880703,50.3073714 C30.5649233,50.0574745 30.1865113,49.403155 29.9712079,49.2313257 C29.5169504,48.8389754 27.0894865,46.279242 27.0788844,46.2691818 L27.0589036,46.247854 L27.0454471,46.2305504 C27.0454471,46.2305504 27.0014078,46.1697864 26.9112903,46.0651596 C26.8203572,45.9617401 26.6878315,45.8208964 26.5312472,45.6836745 C26.2160398,45.4035967 25.8001129,45.1653697 25.4649247,45.1726131 L25.4649247,45.1416275 L25.4681868,45.1718083 L25.3943802,44.3706089 C25.4359729,44.3665848 25.4584003,44.3681944 25.4649247,44.3681944 C26.6772294,44.4136668 27.4948114,45.5009801 27.6717842,45.7202938 L27.6734153,45.7190866 C27.6746386,45.7206962 28.2875192,46.3653579 28.9517791,47.0542847 C29.6095145,47.7375778 30.3430955,48.4872686 30.5066119,48.6244906 C30.9274321,49.000342 31.2589504,49.6574784 31.4192046,49.9512381 C31.4526419,50.0220624 31.4742538,50.0679372 31.4750693,50.0699492 L30.7317018,50.4019379 C30.7317018,50.4019379 30.7133521,50.360892 30.6880703,50.3073714" id="Fill-34"></path>
                <path d="M31.7342081,46.2009732 C30.8570916,45.2955495 29.4164347,43.8593463 29.1297713,43.6529097 L29.6190972,43.008248 C30.0497039,43.3325909 31.414923,44.712859 32.3213991,45.6412201 C32.7752489,46.1011754 33.0977961,46.4363833 33.0994272,46.437993 L32.5081585,46.9917099 C32.507343,46.9909051 32.1880579,46.6601236 31.7342081,46.2009732" id="Fill-36"></path>
                <path d="M28.0307863,50.4818566 C27.7526861,50.27542 27.0961739,49.5824691 26.3768649,48.8259373 C25.6730512,48.0818802 24.9680143,47.3189099 24.7816627,47.1213263 L24.7824782,47.1213263 C24.6283406,46.9595573 24.6381271,46.704429 24.802459,46.5531226 C24.9671987,46.4018163 25.2257259,46.4110717 25.379048,46.574048 C25.5723317,46.7784725 26.2720676,47.5350043 26.9726191,48.2766469 C27.6584909,49.0070221 28.4063438,49.7655659 28.5066556,49.8283419 C28.5759768,49.8814601 28.7472409,49.9390048 28.8614169,49.9349807 C28.9168738,49.9357856 28.9560199,49.9245181 28.9670297,49.9188843 C28.9686608,49.9124457 28.9715152,49.8991662 28.9715152,49.8742167 C28.9715152,49.8609372 28.9706997,49.8420239 28.9690686,49.8206961 C28.9466411,49.5989679 29.1105653,49.4021892 29.3348396,49.3808614 C29.559114,49.3595337 29.7581065,49.5204979 29.7805339,49.7418237 C29.7846116,49.7844792 29.7870583,49.8283419 29.7870583,49.8742167 C29.7927671,50.1357836 29.6736978,50.4013745 29.4755208,50.5486568 C29.2797905,50.6979511 29.0600016,50.738997 28.8614169,50.7402042 C28.5568115,50.7365825 28.2717792,50.6480522 28.0307863,50.4818566" id="Fill-38"></path>
                <path d="M30.286293,48.0273134 L27.7405753,45.59112 C27.57869,45.436192 27.5746122,45.1822709 27.7316043,45.0225139 C27.8881886,44.8631594 28.1467157,44.8587329 28.3081932,45.0136609 L30.8902026,47.4840592 L30.9061057,47.5037773 C30.9570771,47.561322 30.9668637,47.5605172 30.9693103,47.5597123 C30.9693103,47.5593099 30.9693103,47.5593099 30.9701258,47.5597123 L30.9676792,47.5548834 C30.9766502,47.5440183 30.9962232,47.5146424 30.9962232,47.4538784 C30.9962232,47.4422085 30.9962232,47.4297337 30.9954077,47.4192711 C30.9742035,47.1979453 31.1401666,47.0019713 31.3644409,46.9822532 C31.5887152,46.9625351 31.7864844,47.1255114 31.8072808,47.3468372 C31.810543,47.3838589 31.8113585,47.4192711 31.8113585,47.4538784 C31.810543,47.9275156 31.465976,48.3621189 30.9701258,48.3645334 L30.9652326,48.3645334 C30.709152,48.3645334 30.4595959,48.23375 30.286293,48.0273134" id="Fill-40"></path>
                <path d="M63.1780014,19.2877972 C63.0291648,19.1207968 63.0450679,18.8668758 63.2138853,18.7199959 L81.2496203,2.98976829 C81.4184377,2.84168121 81.6757416,2.85737522 81.8253937,3.02437559 C81.9746381,3.19097355 81.958735,3.44529701 81.7907331,3.59257926 L63.7545903,19.3228069 C63.676706,19.3904119 63.5800641,19.4234095 63.4846456,19.4234095 C63.3716929,19.4234095 63.2591479,19.3775347 63.1780014,19.2877972" id="Fill-42"></path>
                <path d="M48.8351269,31.5057052 C48.6879214,31.3383024 48.7058633,31.0843814 48.8759041,30.9383064 L59.942008,21.4498685 C60.1124565,21.3037934 60.3705759,21.3219019 60.5177814,21.4897071 C60.6653947,21.6571099 60.647045,21.9110309 60.477412,22.057106 L49.4100848,31.5455438 C49.333016,31.6119416 49.2380052,31.6445368 49.1429944,31.6445368 C49.0292262,31.6445368 48.9158657,31.5978572 48.8351269,31.5057052" id="Fill-44"></path>
                <path d="M31.7987176,46.1095858 C31.6502887,45.9417806 31.6690462,45.6882619 31.8386792,45.5417845 L45.6168716,33.7290234 L45.6409301,33.7093053 C45.8142331,33.5668519 46.0715369,33.5909966 46.2154802,33.762021 C46.3586081,33.9330455 46.3349573,34.1869666 46.1616544,34.3282127 L46.1441202,34.342297 L32.3740832,46.1494244 C32.2966066,46.2158221 32.2011881,46.248015 32.1065851,46.248015 C31.9924091,46.248015 31.8790486,46.2013354 31.7987176,46.1095858" id="Fill-46"></path>
                <path d="M13.892817,65.2643672 L13.8271658,65.1915309 L9.67564378,60.7171282 L9.67645933,60.7171282 C9.52395277,60.5533472 9.53537037,60.2990237 9.70133339,60.1481198 C9.86688863,59.998423 10.125008,60.0096905 10.2775146,60.1734716 L14.431891,64.651496 L14.5016199,64.7283564 C14.6508643,64.8937471 14.6365923,65.1480706 14.4689982,65.2961577 C14.3911138,65.3649699 14.2936564,65.3987723 14.1970146,65.3987723 C14.0848774,65.3987723 13.973148,65.3533 13.892817,65.2643672" id="Fill-48"></path>
                <path d="M61.8208969,21.5525234 C61.8208969,21.4414581 61.91183,21.3509157 62.0239672,21.3509157 C62.1193857,21.3525254 62.3440678,21.3102723 62.5112541,21.2213395 C62.6857804,21.1283827 62.77916,21.0213415 62.7783445,20.886534 C62.77916,20.7859313 62.7241109,20.620943 62.5234873,20.3923738 C61.6830701,19.4398681 59.6919217,17.2012583 59.6894751,17.1984415 C59.6156685,17.1147401 59.6234161,16.9875783 59.7078248,16.9143396 C59.7922335,16.8415033 59.9214971,16.8487467 59.9961193,16.9328505 C59.9961193,16.9328505 61.9897143,19.1730699 62.8317626,20.1283925 C63.0674545,20.39841 63.1844849,20.6475021 63.1853005,20.886534 C63.1335135,21.5907524 62.3465144,21.7392419 62.0239672,21.7537287 C61.91183,21.7537287 61.8208969,21.6631863 61.8208969,21.5525234" id="Fill-50"></path>
                <path d="M64.3782361,65.1906859 C62.4714964,63.4571013 61.7693138,61.1528986 61.7729838,58.949701 C61.7770615,56.626585 62.5200212,54.3835487 63.4909253,52.774309 C63.3102825,52.6246122 63.116591,52.4386986 62.9269772,52.2173728 C62.5640605,51.7896104 62.2007361,51.2306622 62.0853368,50.5538077 C61.9891027,50.4930437 61.8973541,50.4222194 61.7888869,50.3441518 C61.5430006,50.1509947 61.2791724,49.8982809 61.0275774,49.5976802 C60.5329505,48.9952717 60.0542267,48.2073518 60.0440325,47.2878438 C60.0440325,47.2411642 60.0456635,47.1940821 60.0481102,47.1470001 L46.524775,35.3889668 L47.3329781,34.4835431 L61.3794842,46.6946907 L61.2938522,47.0488119 C61.276318,47.1212458 61.2673471,47.2005207 61.2673471,47.2878438 C61.2595994,47.7139965 61.5303597,48.2817978 61.8981696,48.7393386 C62.2141926,49.1562359 62.6545858,49.4934559 62.7712085,49.5526103 L63.2719519,49.6141791 L63.2719519,50.1477754 L63.2719519,50.1634694 C63.2711364,50.5389185 63.4966341,50.9964592 63.8008316,51.3662745 C64.0524267,51.6894102 64.3990325,51.9533915 64.4952665,52.0105338 L65.3650432,52.1799486 L64.835348,52.9368828 C63.8534341,54.3324425 62.9909973,56.6555585 62.9962984,58.949701 C62.9995605,60.9182933 63.600208,62.8365843 65.2072356,64.3033706 C66.8175254,65.7661329 68.6255844,66.3331294 70.4670807,66.3371535 C72.6816879,66.3395679 74.9395189,65.4808239 76.7284126,64.2804332 L77.2907296,63.7327525 L82.7344796,58.4450781 L82.8490634,58.3364273 C84.2155058,57.0000219 85.4192474,54.2845557 85.4078298,51.6966536 C85.4053831,49.9127677 84.8703869,48.2166073 83.5402361,46.938149 C81.6216711,45.0991329 79.4490643,43.9860654 77.1068246,43.9868702 C75.1833663,43.9884799 73.0878284,44.7293176 70.8316284,46.5751747 L70.2097768,47.0834192 L69.8823363,46.3570682 C69.8570545,46.3011332 69.8297338,46.248015 69.8020053,46.2021402 C69.5398082,45.7490259 68.9632193,45.4464132 68.2304538,45.4009408 C68.1709192,45.3961119 68.1085301,45.3945022 68.0432867,45.3945022 C67.7407202,45.3945022 67.4246973,45.4456084 67.1172375,45.5458086 L66.3143354,45.8065706 L66.3143354,44.9719712 L66.3143354,44.9337422 C66.3294229,44.9160361 66.175693,44.5236859 65.8445826,44.2472298 C65.5212197,43.9526653 65.086943,43.7462287 64.7142399,43.7510576 C64.6245301,43.7510576 64.5335971,43.7619227 64.4491884,43.7836529 C64.3272647,43.817053 64.2094187,43.8673543 64.0866795,43.9450195 L63.7070442,44.1884779 L49.6719557,32.5785317 L50.4573236,31.652585 L63.8342689,42.7180698 C63.9321341,42.6782312 64.0324459,42.6448311 64.1327576,42.6178696 C64.3280802,42.5675683 64.522995,42.5442285 64.7142399,42.5442285 C65.5053166,42.5494598 66.1765086,42.9164582 66.6695044,43.3554881 C66.961061,43.6319441 67.2069473,43.9204725 67.3623082,44.2444129 C67.5886214,44.2065864 67.8165657,44.1868682 68.0432867,44.1868682 C68.1358508,44.1868682 68.2304538,44.1900875 68.3173092,44.1969285 C69.176076,44.2480346 70.0266874,44.5731824 70.5894121,45.2218681 C72.8195147,43.5389873 75.0202577,42.7776266 77.1068246,42.7792362 C79.8592825,42.780041 82.330378,44.0906921 84.3924786,46.072564 C86.0076617,47.6222469 86.6344065,49.6809792 86.6319671,51.6966536 C86.6209501,54.6402866 85.3576739,57.5468978 83.7066069,59.1971834 L83.5879454,59.3098584 L78.1490887,64.5935086 L77.5105184,65.2140257 L77.4660713,65.2450113 C75.5026514,66.5705516 73.0234004,67.5415682 70.4670807,67.5447875 L70.4519931,67.5447875 C68.3572708,67.5447875 66.2074992,66.8614944 64.3782361,65.1906859" id="Fill-52"></path>
                <path d="M82.2063339,66.3316404 C81.2880324,66.3252019 80.532024,65.9235962 79.9660371,65.5718894 C79.898347,65.5751086 79.8290258,65.5775231 79.7588891,65.5775231 C79.6854902,65.5775231 79.6137225,65.5747062 79.5607122,65.5714869 C78.7737131,65.5481471 78.0409476,65.2636429 77.4358147,64.734473 L78.2399402,63.8258301 C78.6709547,64.1892068 79.0636387,64.3397083 79.6202468,64.365865 C79.666325,64.3682795 79.7128109,64.3698891 79.7588891,64.3698891 C79.8534921,64.3698891 79.9586972,64.3642554 80.073281,64.3549999 L80.2836911,64.336489 L80.462295,64.4519809 C80.9879125,64.7988587 81.6264828,65.1316522 82.2063339,65.1240064 C82.6736401,65.1159582 83.155626,64.961835 83.7587201,64.2821636 C84.3630375,63.5791524 84.5261462,63.034691 84.5277772,62.6085382 C84.5391948,61.9047222 84.0148006,61.3131787 83.6062136,60.9908479 L83.3794926,60.8093607 L83.3794926,60.5646951 L83.377046,60.5542325 L83.3754149,60.4906516 C83.3978423,60.1506147 83.0434888,59.5091723 82.9191185,59.4761746 L83.5793006,58.4608929 C84.1648606,58.8749733 84.4759903,59.5333169 84.5742632,60.2202317 C85.0892786,60.6817966 85.7425286,61.4721309 85.7519136,62.6085382 C85.7535385,63.3690941 85.4318067,64.2121442 84.688847,65.0672666 C83.9385474,65.9457287 83.0496054,66.3316404 82.2324313,66.3316404 L82.2063339,66.3316404 Z" id="Fill-54"></path>
                <polygon id="Fill-56" points="49.637132 32.5979681 49.5445678 32.5178884 48.6723445 31.7814771 46.3757752 29.8410536 34.7995491 20.0471861 35.5951114 19.1300925 47.1713375 28.9247648 49.4670912 30.8635787 50.3454311 31.6052213 50.4388108 31.6861058 50.6422888 31.8591424 50.6431044 31.8591424 49.8450955 32.7742239"></polygon>
                <polygon id="Fill-58" points="46.5390062 35.3944396 46.378752 35.2612417 45.4775769 34.4958569 43.2185226 32.5731394 32.164244 23.18128 32.9618451 22.2657961 44.0169392 31.6580578 46.275178 33.5807753 47.1722754 34.3421361 47.3345684 34.4769436 47.6481448 34.7465587 47.6489603 34.7465587 46.8456504 35.6572137"></polygon>
                <path d="M29.4781306,21.5694246 C29.4732373,21.842259 29.646948,22.1847103 29.9515533,22.4535206 C30.2504498,22.7231356 30.6574058,22.8861119 30.9461081,22.8804781 C31.1540716,22.8760516 31.2874129,22.8253479 31.4093365,22.7038199 L31.9121189,22.1472862 L32.7929054,21.1770744 L34.6629456,19.1183421 L35.3712448,18.334044 L35.3842935,18.320362 C35.5873637,18.1163399 35.6566849,17.9127201 35.6607922,17.6736883 C35.6632092,17.3746973 35.5139648,17.0193688 35.2603309,16.7565947 C35.0071048,16.492211 34.6788487,16.3356733 34.3558937,16.3372706 C34.0753469,16.3405022 33.7638094,16.4370807 33.3972228,16.7899948 L32.9658005,17.2857645 L30.9057387,19.6487192 L30.0184278,20.6656106 L29.7982312,20.9183244 L29.3337794,20.5263765 L29.7961924,20.9211413 L29.6322682,21.1074573 C29.5160533,21.2784818 29.4797616,21.42174 29.4781306,21.5694246 L29.4781306,21.5694246 Z M30.9461081,24.0881128 C30.2655374,24.0824784 29.632676,23.7883163 29.1343791,23.3508961 C28.6417911,22.9122686 28.260117,22.2969829 28.2548075,21.5694246 C28.2535926,21.1690262 28.3853028,20.7505192 28.6523932,20.384728 L28.6691118,20.3613882 L28.6874615,20.3400605 L28.8713665,20.130807 L28.8713665,20.1312094 L29.0899321,19.8784956 L29.9792818,18.8612018 L32.0381203,16.4986495 L32.5017565,15.9666628 L32.5172518,15.9517736 C33.0677434,15.3996664 33.7279255,15.1260272 34.3558937,15.1296134 C35.7969583,15.163049 36.8604264,16.3686709 36.8841164,17.6736883 C36.8873394,18.1915906 36.6871235,18.7416858 36.2601867,19.1634121 L35.5747228,19.9223583 L33.703867,21.9831027 L32.8234882,22.9521072 L32.3113272,23.5187012 C31.9427017,23.9106491 31.4346184,24.0885146 30.9624189,24.0881128 L30.9461081,24.0881128 Z" id="Fill-60"></path>
                <path d="M13.7377007,2.01203142 C13.6671562,1.96293734 13.6031361,1.91987941 13.5313683,1.87722389 C12.8552831,1.42531687 12.3781904,1.24825624 12.1045757,1.25670686 C11.850534,1.2623406 11.6319685,1.34724923 11.2482555,1.77581644 C10.8486394,2.23577168 10.6838997,2.70055584 10.6838997,3.08847959 C10.6871619,3.45708764 10.8188721,3.7653341 11.1100209,4.03132746 L10.2867302,4.92427643 C9.74724846,4.44420067 9.45691513,3.77458954 9.46055071,3.08847959 C9.46140062,2.36172617 9.76478264,1.62853419 10.3193519,0.990713496 C10.7980757,0.42452188 11.4085097,0.043439108 12.1045757,0.0494045808 C12.8185837,0.0575234766 13.4604161,0.385085648 14.1862494,0.858320432 C14.2926778,0.921498885 14.3844264,0.98588457 14.4663885,1.04181963 L14.4912625,1.05992811 L32.6476979,16.2219521 L32.6485135,16.2219521 L31.8582522,17.1434722 L13.7377007,2.01203142 Z" id="Fill-62"></path>
                <polygon id="Fill-64" points="9.43379449 24.1660188 0 15.8119762 4.06507444 11.3267084 10.4613788 4.27084221 10.7810716 3.91390407 11.6981498 2.90425605 13.3129251 1.1215774 14.2255178 1.92680087 12.609927 3.70988193 11.6944799 4.71711549 11.3743792 5.07324881 4.97644383 12.1315295 1.72568914 15.7182146 10.2501531 23.2674361 18.953221 30.9735978 22.3666765 27.2255461 28.8543217 20.1028797 29.76406 20.9093104 23.2764148 28.0319768 19.0474162 32.6782088"></polygon>
                <polygon id="Fill-67" points="18.5825567 24.9246834 23.2364532 19.8728216 17.4901367 15.0422856 11.6141489 10.1018915 7.27627529 14.8475189 4.18495927 12.24513 4.97848268 11.3264268 7.16413812 13.1670525 11.5028273 8.42222996 18.2840679 14.1227775 24.9919097 19.7621587 20.3486152 24.8031554 23.0325674 27.0031338 22.2512772 27.9318973"></polygon>
                <polygon id="Fill-69" points="9.30836396 23.4048191 9.38053952 23.3211177 17.4319885 14.1791552 17.5384169 14.0628586 18.4485629 14.8692893 18.3486589 14.9783426 10.3106664 24.1054158 10.2450152 24.1814714 10.2450152 24.1822762"></polygon>
                <polygon id="Fill-71" points="16.6289232 18.5572209 17.4167378 17.6336887 21.3317524 20.8847634 20.5439378 21.8091003"></polygon>
                <polygon id="Fill-73" points="12.1352809 14.7824894 10.3777856 13.3221415 11.1656002 12.3986094 12.9235033 13.8589572 15.0797992 15.6500865 15.0806147 15.6500865 14.2928001 16.5732162"></polygon>
                <polygon id="Fill-75" points="12.1151778 25.6837101 18.0853608 19.2568116 18.9869437 20.0724977 13.0167606 26.4989939"></polygon>
                <polygon id="Fill-77" points="6.39422468 20.0332627 12.0761133 13.9146106 12.3582912 13.6087786 12.3582912 13.6095834 13.263544 14.4212454 12.979735 14.7286871 7.29621532 20.8497536"></polygon>
                <polygon id="Fill-79" points="10.9336597 4.85820062 11.743494 3.95277693 29.7551705 19.6467876 28.9453363 20.5518089"></polygon>
                <path d="M67.8570166,54.5110726 C66.8017039,55.3496961 66.0053261,56.6414339 65.9996173,58.6542914 C66.0077727,60.5363654 66.8567531,61.6232763 67.915328,62.3174344 C68.9702329,63.0047516 70.2644998,63.2369425 70.9838088,63.2337562 C73.0010546,63.2035424 76.014894,61.8912817 76.0365059,57.2374039 C76.0365059,57.1891146 76.0356903,57.1380085 76.0356903,57.0848903 L76.0356903,56.5017975 L76.5882208,56.7090389 C76.7802812,56.780668 77.0094488,56.818897 77.2675681,56.818897 C78.1817919,56.8249331 79.4210096,56.3138717 80.3878359,55.4832964 C81.3620021,54.6531235 82.0531749,53.5344222 82.0495195,52.3811136 C82.0319708,49.1606222 79.8997334,47.2721095 77.2064024,47.2544035 C74.5183725,47.2660734 72.0016065,49.3095141 71.9897812,52.9324161 L71.9897812,53.3609833 L71.55632,53.3332169 C71.4694647,53.328388 71.3797549,53.3247663 71.2896374,53.3255711 L71.2794431,53.3255711 C70.2502278,53.3255711 68.9090672,53.6788876 67.8570166,54.5110726 M67.4684104,62.9906673 C66.2275616,62.200333 65.1763266,60.7963226 65.1840317,58.6542914 C65.1795887,56.4233274 66.1137933,54.8482926 67.3481178,53.8821049 C68.5473739,52.9408667 69.9970017,52.5452971 71.1844324,52.5215549 C71.2745499,50.7034641 71.9714314,49.2169596 73.014511,48.1759236 C74.1350672,47.0556127 75.6470841,46.4491791 77.2064024,46.4491791 C78.7575653,46.4483752 80.1819113,47.0177861 81.2115344,48.054798 C82.2419731,49.0897979 82.8674947,50.5839482 82.8658667,52.3811136 C82.8617859,53.8579603 82.0136211,55.1585511 80.9207933,56.0913387 C79.8210335,57.0245287 78.4647854,57.6176819 77.2675681,57.6245228 C77.1252559,57.6245228 76.9841669,57.6152674 76.8455246,57.5967565 C76.7704946,59.9206773 75.9353785,61.5379652 74.8115602,62.5560639 C73.630246,63.6260735 72.172055,64.037337 70.9838088,64.0389467 C70.1115855,64.0357274 68.7100747,63.7882449 67.4684104,62.9906673" id="Fill-81"></path>
                <path d="M64.2484017,52.1999886 C64.492249,52.1798681 65.4827261,51.4519075 66.3476095,50.6442695 C67.2398136,49.835022 68.1230468,48.9364392 68.5198085,48.5159202 C69.281118,47.7300125 69.916426,46.6274076 69.8988918,45.9541748 L69.8988918,45.9207747 L70.7136194,45.8990446 C70.7144349,45.9215796 70.7144349,45.9392856 70.7144349,45.9541748 C70.6969007,47.0310254 69.94864,48.1738713 69.1163783,49.0660154 C68.7053445,49.499814 67.8155871,50.4052377 66.9005477,51.235813 C65.9590032,52.0692052 65.1108385,52.8148719 64.4164035,52.9879085 L64.2484017,52.1999886 Z" id="Fill-83"></path>
                <path d="M62.2358452,50.118158 C62.2366608,50.1165484 62.2582727,50.0706736 62.2953799,49.9918011 C62.4482942,49.7048824 62.7789969,49.0485508 63.2051182,48.6726994 C63.3674113,48.5346726 64.1009922,47.786189 64.7587277,47.1024935 C65.4229876,46.4135667 66.0354604,45.768905 66.0370915,45.7672954 L66.0387226,45.768905 C66.2148799,45.5507985 67.0328696,44.4618756 68.2447666,44.4168056 C68.2512909,44.4168056 68.276165,44.4160008 68.3132722,44.4184153 L68.2463977,45.2212243 L68.2447666,45.2212243 C67.7399454,45.1950676 67.0654913,45.7890255 66.7992165,46.1133684 C66.7086912,46.2183976 66.6646519,46.2779543 66.6646519,46.2787591 L66.6503799,46.29727 L66.6320302,46.3181954 C66.6210203,46.3282556 64.1935564,48.8871842 63.7388911,49.2815465 C63.5211411,49.4521686 63.1423214,50.1064881 63.0297764,50.3435079 C62.9979702,50.4095032 62.978805,50.4501467 62.978805,50.4501467 L62.978805,50.4509515 L62.2358452,50.118158 Z" id="Fill-85"></path>
                <path d="M60.6118951,46.4860408 C60.6127106,46.485236 60.9352579,46.1504304 61.3874766,45.6916824 C62.2955838,44.7613093 63.6616184,43.3814436 64.0914096,43.0575031 L64.0922252,43.0575031 L64.5811432,43.7013599 C64.2936643,43.9069917 62.853823,45.3444021 61.9730365,46.2510331 C61.5228567,46.707769 61.2027561,47.0393553 61.2027561,47.0409649 L60.6118951,46.4860408 Z" id="Fill-87"></path>
                <path d="M64.2340481,50.5968253 C64.0358711,50.4495431 63.9163941,50.1843545 63.9216951,49.9219829 C63.9216951,49.8744984 63.9241417,49.8229899 63.9347438,49.76625 C63.9689966,49.5469363 64.1781834,49.3968371 64.4004189,49.4318469 C64.6226544,49.4668566 64.7739376,49.6732932 64.7396848,49.8922045 C64.7380537,49.9006551 64.7364226,49.9111178 64.7364226,49.9219829 C64.7364226,49.9449203 64.7396848,49.9586022 64.7413159,49.9654432 C64.7462091,49.9674553 64.7531413,49.9702721 64.7637433,49.9738938 C64.782093,49.9787228 64.8098215,49.9835517 64.848152,49.9835517 C64.9635514,49.986771 65.1348154,49.9304335 65.203321,49.8769129 C65.3044484,49.8141369 66.0523014,49.0551906 66.7373576,48.3248155 C67.4387246,47.5835753 68.1380528,46.8266411 68.3317443,46.6218141 L68.3325598,46.6218141 C68.4854741,46.4596427 68.742778,46.4503872 68.9083332,46.6016936 C69.0722574,46.7525975 69.0820439,47.006921 68.928314,47.1698973 C68.742778,47.3674808 68.0385565,48.1300488 67.3347429,48.8737034 C66.6146183,49.6302352 65.9576984,50.323991 65.6795982,50.53083 C65.439013,50.6958183 65.1531651,50.7847511 64.848152,50.7883727 C64.6499751,50.7871655 64.4293707,50.7457172 64.2340481,50.5968253" id="Fill-89"></path>
                <path d="M62.7399732,48.4108911 C62.2461619,48.4092815 61.8983327,47.9770925 61.8975172,47.5026505 C61.8975172,47.4656288 61.8987405,47.421766 61.9068959,47.3718671 C61.9395177,47.1525534 62.1466656,47.0004422 62.3697166,47.0338423 C62.5927677,47.0660351 62.745682,47.2704597 62.7130603,47.4905782 C62.7138758,47.4905782 62.7130603,47.4925903 62.7130603,47.5026505 C62.7130603,47.5622073 62.73141,47.590376 62.7416043,47.6012411 L62.7399732,47.6052652 C62.7424198,47.6032532 62.7550607,47.6068749 62.8060322,47.5497326 L62.8194886,47.5332337 L65.4023135,45.0620307 L65.4031291,45.0620307 C65.5641988,44.907505 65.8223182,44.9115291 65.9789025,45.0712861 C66.1358945,45.2306407 66.1310013,45.4849641 65.9695238,45.6398922 L63.418505,48.0813169 C63.2447944,48.2837294 62.997277,48.4108911 62.7448664,48.4108911 L62.7399732,48.4108911 Z" id="Fill-91"></path>
                <path d="M29.9565689,19.3708949 L11.9208339,3.64066732 C11.7524242,3.49298265 11.7365211,3.23906161 11.88495,3.07206124 C12.0341943,2.90586569 12.2923137,2.89017168 12.4607234,3.03785635 L30.4964584,18.768084 C30.6648681,18.9153662 30.6807711,19.1692873 30.5323423,19.3354828 C30.4516035,19.4256228 30.3394664,19.4714976 30.2265137,19.4714976 C30.1302796,19.4714976 30.0340455,19.4384999 29.9565689,19.3708949" id="Fill-93"></path>
                <path d="M47.5425319,34.3711096 L33.2330132,22.1052343 C33.063788,21.9595616 33.0454383,21.7056406 33.1930516,21.5378354 C33.3402571,21.3700302 33.5983765,21.3519217 33.7684172,21.4975944 L48.0771204,33.7634697 C48.2475689,33.9091423 48.2655109,34.1634658 48.117082,34.331271 C48.036751,34.4226182 47.9233905,34.4697002 47.8092145,34.4697002 C47.7146115,34.4697002 47.6196007,34.437105 47.5425319,34.3711096" id="Fill-95"></path>
                <path d="M61.337443,46.1977941 L47.5417164,34.3709487 C47.372899,34.2248736 47.3545493,33.9709526 47.501347,33.8031474 C47.6497758,33.6353422 47.9070797,33.6180386 48.0767126,33.7633088 L61.8720315,45.5901542 C62.0416644,45.7354244 62.0596064,45.9901503 61.9124009,46.1579555 C61.8320699,46.2497051 61.7191171,46.2963847 61.6049411,46.2963847 C61.5095226,46.2963847 61.4145118,46.2637895 61.337443,46.1977941" id="Fill-97"></path>
                <path d="M79.2427727,65.345131 C79.0739553,65.1962391 79.0596833,64.9423181 79.2093354,64.7761225 L79.2819188,64.6968477 L83.4334408,60.2216402 C83.5855395,60.0578591 83.8428434,60.046994 84.0092142,60.1962883 C84.1751772,60.3471922 84.1870026,60.6011133 84.0357193,60.7648944 L79.8870517,65.2364802 L79.8185461,65.3133406 C79.7373996,65.4022733 79.6256702,65.4473433 79.513533,65.4473433 C79.4164834,65.4473433 79.3198415,65.4135408 79.2427727,65.345131" id="Fill-99"></path>
                <path d="M30.3826494,22.2842667 C30.2974251,22.211028 30.2876386,22.0842687 30.361853,22.0001649 C30.3683774,21.9945311 32.9332603,19.0581415 33.7818329,18.3551303 C34.0954092,18.0959779 34.1794101,17.868616 34.1794101,17.7096638 C34.1790024,17.4915573 34.0163015,17.3712365 33.9127276,17.3712365 C33.8001826,17.3712365 33.7092496,17.2806942 33.7092496,17.1704337 C33.7092496,17.0585636 33.8001826,16.9684236 33.9127276,16.9684236 C34.2789064,16.9736549 34.5859584,17.2931689 34.5867805,17.7096638 C34.5879972,18.016703 34.4199954,18.3551303 34.0436222,18.664584 C33.2619242,19.3052215 30.6729827,22.2589148 30.6705361,22.2629389 C30.6301667,22.3092162 30.5730787,22.3333608 30.5155829,22.3333608 C30.4682814,22.3333608 30.4209799,22.316862 30.3826494,22.2842667" id="Fill-101"></path>
            </g>
            <g id="Group-28" transform="translate(0.000000, 94.000000)" fill-rule="nonzero">
                <path d="M2.871,15.84 C2.871,19.008 2.871,21.615 2.706,23.001 C2.574,23.958 2.409,24.684 1.749,24.816 C1.452,24.882 1.056,24.948 0.759,24.948 C0.561,24.948 0.495,25.047 0.495,25.146 C0.495,25.344 0.66,25.41 1.023,25.41 C2.013,25.41 4.092,25.311 4.125,25.311 C4.29,25.311 6.369,25.41 8.184,25.41 C8.547,25.41 8.712,25.311 8.712,25.146 C8.712,25.047 8.646,24.948 8.448,24.948 C8.151,24.948 7.425,24.882 6.963,24.816 C5.973,24.684 5.775,23.958 5.676,23.001 C5.511,21.615 5.511,19.008 5.511,15.84 L5.511,15.048 C5.511,14.883 5.577,14.784 5.742,14.784 L9.801,14.85 C9.999,14.85 10.098,14.916 10.23,15.048 C10.89,15.906 12.441,18.117 13.827,19.932 C15.708,22.407 16.863,24.024 18.282,24.783 C19.14,25.245 19.965,25.41 21.813,25.41 L24.156,25.41 C24.75,25.41 24.948,25.344 24.948,25.146 C24.948,25.047 24.816,24.948 24.651,24.948 C24.453,24.948 23.991,24.948 23.364,24.849 C22.539,24.717 21.12,24.354 19.338,22.473 C17.424,20.427 15.18,17.49 12.474,14.025 C15.444,11.286 16.467,8.844 16.467,6.402 C16.467,4.125 15.015,2.508 14.19,1.914 C12.441,0.66 10.23,0.462 8.151,0.462 C7.128,0.462 4.62,0.561 4.257,0.561 C4.092,0.561 2.013,0.462 0.528,0.462 C0.165,0.462 0,0.528 0,0.726 C0,0.858 0.132,0.924 0.264,0.924 C0.561,0.924 1.122,0.957 1.386,1.023 C2.475,1.254 2.739,1.782 2.805,2.904 C2.871,3.96 2.871,4.884 2.871,10.032 L2.871,15.84 Z M5.511,2.112 C5.511,1.914 5.61,1.782 5.775,1.716 C6.105,1.617 6.996,1.518 7.986,1.518 C11.517,1.518 13.695,3.993 13.695,8.118 C13.695,10.626 12.837,12.408 11.682,13.2 C10.923,13.728 9.999,13.827 9.207,13.827 C7.755,13.827 6.237,13.596 5.742,13.299 C5.577,13.2 5.511,13.068 5.511,12.903 L5.511,2.112 Z" id="Shape"></path>
                <path d="M42.126,15.675 C42.291,15.675 42.357,15.741 42.423,15.873 L45.492,23.991 C45.69,24.519 45.492,24.816 45.294,24.882 C45.162,24.915 45.063,24.981 45.063,25.113 C45.063,25.311 45.426,25.311 46.053,25.344 C48.33,25.41 50.739,25.41 51.234,25.41 C51.597,25.41 51.894,25.344 51.894,25.146 C51.894,24.981 51.729,24.948 51.531,24.948 C51.267,24.948 50.739,24.915 50.244,24.75 C49.551,24.552 48.594,24.024 47.406,21.087 C45.393,16.071 40.212,2.442 39.717,1.188 C39.321,0.165 39.189,0 38.991,0 C38.793,0 38.661,0.198 38.265,1.287 L30.774,21.78 C30.18,23.43 29.52,24.684 28.002,24.882 C27.738,24.915 27.441,24.948 27.21,24.948 C26.913,24.948 26.748,25.014 26.748,25.146 C26.748,25.344 26.946,25.41 27.375,25.41 C28.926,25.41 30.741,25.311 31.104,25.311 C31.467,25.311 32.787,25.41 33.579,25.41 C33.876,25.41 34.173,25.344 34.173,25.146 C34.173,25.014 34.074,24.948 33.744,24.948 C33.645,24.948 33.546,24.948 33.447,24.948 C32.886,24.948 32.259,24.651 32.259,23.991 C32.259,23.397 32.424,22.605 32.721,21.78 L34.701,15.939 C34.767,15.774 34.866,15.675 35.031,15.675 L42.126,15.675 Z M35.394,14.487 C35.295,14.487 35.229,14.421 35.295,14.256 L38.199,5.346 C38.364,4.851 38.529,4.851 38.694,5.346 L41.829,14.256 C41.862,14.388 41.862,14.487 41.697,14.487 L35.394,14.487 Z" id="Shape"></path>
                <path d="M59.713,15.84 C59.713,19.008 59.713,21.615 59.548,23.001 C59.416,23.958 59.251,24.684 58.591,24.816 C58.294,24.882 58.03,24.915 57.667,24.948 C57.403,24.948 57.337,25.047 57.337,25.146 C57.337,25.344 57.502,25.41 57.865,25.41 C58.36,25.41 59.119,25.344 59.779,25.344 C60.472,25.311 61.033,25.311 61.099,25.311 C61.264,25.311 62.386,25.41 63.838,25.509 C65.257,25.608 67.006,25.707 68.425,25.707 C74.035,25.707 77.005,23.397 78.424,21.912 C80.272,19.965 81.988,16.764 81.988,12.606 C81.988,8.679 80.437,5.94 78.787,4.224 C74.86,0.165 68.821,0.462 65.554,0.462 C63.574,0.462 61.495,0.561 61.099,0.561 C60.934,0.561 58.855,0.462 57.37,0.462 C57.007,0.462 56.842,0.528 56.842,0.726 C56.842,0.858 56.974,0.924 57.205,0.924 C57.502,0.924 58.063,0.957 58.327,1.023 C59.416,1.254 59.581,1.782 59.647,2.904 C59.713,3.96 59.713,4.884 59.713,10.032 L59.713,15.84 Z M62.485,9.504 C62.485,6.963 62.485,3.597 62.518,2.475 C62.518,2.112 62.617,1.947 62.914,1.815 C63.178,1.683 64.399,1.584 65.059,1.584 C68.986,1.584 72.748,2.046 75.85,5.313 C77.203,6.732 79.018,9.438 79.018,13.629 C79.018,16.665 78.094,19.833 76.378,21.516 C74.431,23.463 71.593,24.585 68.524,24.585 C64.63,24.585 63.343,23.892 62.914,23.265 C62.65,22.902 62.584,21.582 62.551,20.757 C62.518,20.13 62.485,17.094 62.485,13.596 L62.485,9.504 Z" id="Shape"></path>
                <path d="M93.351,10.032 C93.351,4.884 93.351,3.96 93.417,2.904 C93.483,1.749 93.747,1.188 94.704,1.023 C95.1,0.957 95.562,0.924 95.793,0.924 C95.925,0.924 96.057,0.858 96.057,0.726 C96.057,0.528 95.892,0.462 95.529,0.462 C94.539,0.462 92.13,0.561 91.965,0.561 C91.8,0.561 89.721,0.462 88.236,0.462 C87.873,0.462 87.708,0.528 87.708,0.726 C87.708,0.858 87.84,0.924 87.972,0.924 C88.269,0.924 88.83,0.957 89.094,1.023 C90.183,1.254 90.447,1.782 90.513,2.904 C90.579,3.96 90.579,4.884 90.579,10.032 L90.579,15.84 C90.579,19.008 90.579,21.615 90.414,23.001 C90.282,23.958 90.117,24.684 89.457,24.816 C89.16,24.882 88.764,24.948 88.467,24.948 C88.269,24.948 88.203,25.047 88.203,25.146 C88.203,25.344 88.368,25.41 88.731,25.41 C89.952,25.41 90.942,25.311 91.965,25.311 C95.166,25.311 97.971,25.509 100.809,25.509 C102.558,25.509 102.657,25.377 102.888,24.618 C103.152,23.661 103.383,21.681 103.383,21.318 C103.383,20.955 103.35,20.823 103.185,20.823 C102.987,20.823 102.921,20.988 102.888,21.252 C102.789,21.879 102.459,22.704 102.03,23.232 C101.238,24.189 99.786,24.222 98.037,24.222 C95.463,24.222 94.605,23.991 94.077,23.463 C93.483,22.869 93.351,20.757 93.351,15.906 L93.351,10.032 Z" id="Path"></path>
                <path d="M113.819,15.84 C113.819,18.777 113.786,20.46 113.753,21.747 C113.687,24.222 113.258,24.684 112.565,24.849 C112.334,24.915 112.136,24.915 111.806,24.948 C111.608,24.981 111.443,25.047 111.443,25.146 C111.443,25.344 111.608,25.41 111.971,25.41 C112.829,25.443 113.621,25.311 114.413,25.311 C115.7,25.311 117.218,25.377 118.538,25.41 C119.825,25.443 120.914,25.509 123.356,25.509 C124.643,25.509 124.907,25.509 125.138,24.651 C125.303,23.958 125.567,21.714 125.567,21.45 C125.567,21.219 125.567,20.955 125.369,20.955 C125.204,20.955 125.138,21.087 125.072,21.45 C124.808,22.869 124.445,23.562 123.389,23.892 C122.498,24.156 121.409,24.189 120.419,24.189 C119.132,24.189 118.241,24.123 117.68,23.892 C116.855,23.562 116.657,22.836 116.591,21.483 C116.558,20.79 116.591,16.962 116.591,15.84 L116.591,12.936 C116.591,12.804 116.657,12.705 116.822,12.705 C117.383,12.705 120.65,12.771 121.541,12.87 C122.729,13.002 123.125,13.464 123.257,13.959 C123.356,14.256 123.389,14.586 123.389,14.883 C123.389,15.147 123.422,15.411 123.62,15.411 C123.752,15.411 123.818,15.246 123.851,14.916 C123.884,14.454 123.884,13.695 123.983,12.672 C124.082,11.583 124.247,11.022 124.247,10.824 C124.247,10.626 124.181,10.56 124.082,10.56 C123.95,10.56 123.851,10.692 123.686,10.89 C123.356,11.286 122.927,11.385 122.036,11.451 C121.277,11.517 117.218,11.517 116.789,11.517 C116.624,11.517 116.591,11.418 116.591,11.187 L116.591,2.079 C116.591,1.848 116.657,1.749 116.789,1.749 C117.152,1.749 120.749,1.782 121.31,1.848 C122.762,1.98 123.455,2.31 123.686,3.069 C123.785,3.333 123.851,3.729 123.851,4.158 C123.851,4.422 123.917,4.587 124.115,4.587 C124.247,4.587 124.346,4.356 124.379,4.026 C124.445,3.168 124.478,2.541 124.511,2.046 C124.577,1.122 124.775,0.726 124.775,0.495 C124.775,0.33 124.742,0.198 124.643,0.198 C124.544,0.198 124.478,0.231 124.28,0.33 C124.082,0.429 123.488,0.495 122.762,0.528 C122.003,0.561 115.436,0.561 115.205,0.561 C113.126,0.462 112.235,0.462 111.476,0.462 C111.113,0.462 110.948,0.528 110.948,0.726 C110.948,0.858 111.146,0.891 111.377,0.924 C111.674,0.957 112.103,0.957 112.334,1.023 C113.423,1.254 113.687,1.782 113.753,2.904 C113.819,3.96 113.819,4.884 113.819,10.032 L113.819,15.84 Z" id="Path"></path>
                <path d="M142.174,19.701 C142.174,20.229 142.174,21.615 142.075,23.001 C142.009,23.958 141.712,24.684 141.052,24.816 C140.755,24.882 140.359,24.948 140.062,24.948 C139.864,24.948 139.798,25.047 139.798,25.146 C139.798,25.344 139.963,25.41 140.326,25.41 C141.316,25.41 143.395,25.311 143.56,25.311 C143.725,25.311 145.804,25.41 147.619,25.41 C147.982,25.41 148.147,25.311 148.147,25.146 C148.147,25.047 148.081,24.948 147.883,24.948 C147.586,24.948 146.86,24.882 146.398,24.816 C145.408,24.684 145.111,23.958 145.045,23.001 C144.946,21.615 144.946,20.229 144.946,19.701 L144.946,16.863 C144.946,15.774 144.946,14.751 145.441,13.563 C146.035,12.144 150.655,4.389 151.744,3.069 C152.47,2.178 152.833,1.782 153.493,1.386 C154.021,1.056 154.648,0.924 155.011,0.924 C155.275,0.924 155.44,0.825 155.44,0.66 C155.44,0.528 155.242,0.462 155.011,0.462 C154.384,0.462 152.008,0.561 151.81,0.561 C151.546,0.561 150.49,0.462 149.632,0.462 C149.302,0.462 149.104,0.528 149.104,0.66 C149.104,0.825 149.302,0.891 149.599,0.99 C149.995,1.089 150.127,1.452 150.127,1.914 C150.127,2.343 149.995,2.904 149.566,3.597 C148.906,4.686 144.715,11.913 144.088,13.299 C143.494,12.342 138.544,3.828 138.016,2.871 C137.752,2.376 137.587,1.98 137.587,1.584 C137.587,1.32 137.752,1.122 138.016,0.99 C138.313,0.858 138.511,0.825 138.511,0.693 C138.511,0.561 138.445,0.462 138.082,0.462 C136.795,0.462 135.541,0.561 135.31,0.561 C135.145,0.561 132.67,0.462 132.043,0.462 C131.746,0.462 131.614,0.561 131.614,0.693 C131.614,0.858 131.779,0.924 131.944,0.924 C132.241,0.924 132.868,1.122 133.363,1.452 C133.957,1.848 134.782,2.673 135.607,3.894 C136.762,5.61 141.184,12.87 141.415,13.398 C141.844,14.355 142.174,15.081 142.174,16.863 L142.174,19.701 Z" id="Path"></path>
            </g>
        </g>
    </g>
</svg>